<svg width="108" height="131" viewBox="0 0 108 131" fill="none" xmlns="http://www.w3.org/2000/svg">
<path d="M82.1137 27.4609L78.6313 34.9886C81.9666 39.8171 83.9285 45.6733 83.9285 52C83.9285 57.299 82.5552 62.2638 80.1518 66.5724L81.1083 77.6533C87.4109 70.9924 91.2856 61.9543 91.2856 52.0124C91.2856 42.5905 87.8278 34.0105 82.1137 27.4609Z" fill="white"/>
<path d="M58.2275 81.4791V22.521C61.3175 22.9172 64.2604 23.7962 66.9703 25.0838L70.0848 18.3486C65.3517 16.1077 60.0668 14.8572 54.4999 14.8572C48.933 14.8572 43.6481 16.1077 38.915 18.3486L42.0296 25.0838C44.7762 23.7838 47.7559 22.9048 50.8827 22.5086V81.4915C47.9643 81.1324 45.1686 80.3277 42.5813 79.1762L41.9069 86.9143C45.8308 88.3505 50.0734 89.1429 54.4999 89.1429C58.9387 89.1429 63.2059 88.3505 67.1419 86.8896L66.4675 79.1515C63.9048 80.3153 61.1336 81.1077 58.2275 81.4791Z" fill="white"/>
<path d="M26.8863 27.4609C21.1722 34.0105 17.7144 42.5905 17.7144 52C17.7144 61.9667 21.6014 71.0171 27.9285 77.6781L28.885 66.6219C26.4571 62.3133 25.0715 57.3238 25.0715 52C25.0715 45.6733 27.0334 39.8171 30.3686 35.0009L26.8863 27.4609Z" fill="white"/>
<path d="M73.837 36.462L79.318 24.5886C77.4665 22.8801 75.4555 21.3696 73.2852 20.0696L61.9307 44.6829V62.2639L67.6202 49.9448L70.6857 85.3667C73.1871 84.1286 75.5291 82.6058 77.6749 80.8477L73.837 36.462Z" fill="white"/>
<path d="M47.2163 45.0914L35.6778 20.0942C33.5197 21.3942 31.4965 22.9171 29.6572 24.6257L35.1628 36.5485L35.1506 36.759L31.3371 80.8476C33.4829 82.6057 35.825 84.1285 38.3264 85.3666L41.3919 50.0066L47.2408 62.6723V45.0914H47.2163Z" fill="white"/>
<path d="M6.7173 104H10.0173V125H6.7173V104ZM13.2388 104H17.3788L20.5888 116.57H20.6488V104H23.5888V125H20.1988L16.2388 109.67H16.1788V125H13.2388V104ZM29.3715 107H25.9215V104H36.1215V107H32.6715V125H29.3715V107ZM38.4693 104H47.4693V107H41.7693V112.55H46.2993V115.55H41.7693V122H47.4693V125H38.4693V104ZM50.1177 104H55.0077C56.7077 104 57.9477 104.4 58.7277 105.2C59.5077 105.98 59.8977 107.19 59.8977 108.83V110.12C59.8977 112.3 59.1777 113.68 57.7377 114.26V114.32C58.5377 114.56 59.0977 115.05 59.4177 115.79C59.7577 116.53 59.9277 117.52 59.9277 118.76V122.45C59.9277 123.05 59.9477 123.54 59.9877 123.92C60.0277 124.28 60.1277 124.64 60.2877 125H56.9277C56.8077 124.66 56.7277 124.34 56.6877 124.04C56.6477 123.74 56.6277 123.2 56.6277 122.42V118.58C56.6277 117.62 56.4677 116.95 56.1477 116.57C55.8477 116.19 55.3177 116 54.5577 116H53.4177V125H50.1177V104ZM54.6177 113C55.2777 113 55.7677 112.83 56.0877 112.49C56.4277 112.15 56.5977 111.58 56.5977 110.78V109.16C56.5977 108.4 56.4577 107.85 56.1777 107.51C55.9177 107.17 55.4977 107 54.9177 107H53.4177V113H54.6177ZM62.9673 104H66.2673V125H62.9673V104ZM73.7788 125.3C72.1788 125.3 70.9688 124.85 70.1488 123.95C69.3288 123.03 68.9188 121.72 68.9188 120.02V118.82H72.0388V120.26C72.0388 121.62 72.6088 122.3 73.7488 122.3C74.3088 122.3 74.7288 122.14 75.0088 121.82C75.3088 121.48 75.4588 120.94 75.4588 120.2C75.4588 119.32 75.2588 118.55 74.8588 117.89C74.4588 117.21 73.7188 116.4 72.6388 115.46C71.2788 114.26 70.3288 113.18 69.7888 112.22C69.2488 111.24 68.9788 110.14 68.9788 108.92C68.9788 107.26 69.3988 105.98 70.2388 105.08C71.0788 104.16 72.2988 103.7 73.8988 103.7C75.4788 103.7 76.6688 104.16 77.4688 105.08C78.2888 105.98 78.6988 107.28 78.6988 108.98V109.85H75.5788V108.77C75.5788 108.05 75.4388 107.53 75.1588 107.21C74.8788 106.87 74.4688 106.7 73.9288 106.7C72.8288 106.7 72.2788 107.37 72.2788 108.71C72.2788 109.47 72.4788 110.18 72.8788 110.84C73.2988 111.5 74.0488 112.3 75.1288 113.24C76.5088 114.44 77.4588 115.53 77.9788 116.51C78.4988 117.49 78.7588 118.64 78.7588 119.96C78.7588 121.68 78.3288 123 77.4688 123.92C76.6288 124.84 75.3988 125.3 73.7788 125.3ZM83.9809 107H80.5309V104H90.7309V107H87.2809V125H83.9809V107ZM94.2517 104H98.7217L102.142 125H98.8417L98.2417 120.83V120.89H94.4917L93.8917 125H90.8317L94.2517 104ZM97.8517 118.04L96.3817 107.66H96.3217L94.8817 118.04H97.8517Z" fill="white"/>
<line x1="6" y1="95.5" x2="103" y2="95.5" stroke="white"/>
</svg>
